# Blender v2.73 (sub 5) OBJ File: ''
# www.blender.org
mtllib cube.mtl
o Cube
v 0.000000 0.000000 1.000000
v 0.000000 0.000000 0.000000
v 1.000000 0.000000 1.000000
v 1.000000 0.000000 0.000000
v 0.000000 1.000000 1.000000
v 0.000000 1.000000 0.000000
v 1.000000 1.000000 1.000000
v 1.000000 1.000000 0.000000
vn -0.577300 0.577300 0.577300
vn 0.577300 0.577300 0.577300
vn 0.577300 0.577300 -0.577300
vn -0.577300 0.577300 -0.577300
vn 0.577300 -0.577300 0.577300
vn -0.577300 -0.577300 0.577300
vn -0.577300 -0.577300 -0.577300
vn 0.577300 -0.577300 -0.577300
usemtl blue
s off
f 5//1 7//2 8//3
f 6//4 5//1 8//3
usemtl green
f 3//5 1//6 2//7
f 4//8 3//5 2//7
usemtl orange
f 5//1 6//4 2//7
f 1//6 5//1 2//7
usemtl red
f 7//2 3//5 4//8
f 8//3 7//2 4//8
usemtl white
f 7//2 5//1 1//6
f 3//5 7//2 1//6
usemtl yellow
f 8//3 4//8 2//7
f 6//4 8//3 2//7
