# Blender v2.73 (sub 5) OBJ File: 'untitled.blend'
# www.blender.org
mtllib cube_test.mtl
o Cube_Cube.002
v 1.000000 0.000000 1.000000
v 1.000000 1.000000 1.000000
v -0.000000 0.000000 1.000000
v -0.000000 1.000000 1.000000
v 1.000000 0.000000 0.000000
v 1.000000 1.000000 0.000000
v 0.000000 0.000000 -0.000000
v 0.000000 1.000000 -0.000000
v 1.000000 0.100000 0.900000
v 1.000000 0.900000 0.900000
v 1.000000 0.900000 0.100000
v 1.000000 0.100000 0.100000
v 0.100000 0.900000 -0.000000
v 0.100000 0.100000 -0.000000
v 0.900000 0.900000 0.000000
v 0.900000 0.100000 0.000000
v 0.900000 1.000000 0.900000
v 0.100000 1.000000 0.900000
v 0.100000 1.000000 0.100000
v 0.900000 1.000000 0.100000
v -0.000000 0.900000 0.900000
v -0.000000 0.100000 0.900000
v 0.000000 0.900000 0.100000
v 0.000000 0.100000 0.100000
v 0.900000 0.100000 1.000000
v 0.900000 0.900000 1.000000
v 0.100000 0.900000 1.000000
v 0.100000 0.100000 1.000000
v 0.100000 0.000000 0.900000
v 0.900000 0.000000 0.900000
v 0.100000 0.000000 0.100000
v 0.900000 0.000000 0.100000
vn 1.000000 0.000000 0.000000
vn 0.577300 0.577300 0.577300
vn 0.577300 -0.577300 0.577300
vn 0.577300 -0.577300 -0.577300
vn 0.577300 0.577300 -0.577300
vn 0.000000 0.000000 -1.000000
vn -0.577300 -0.577300 -0.577300
vn -0.577300 0.577300 -0.577300
vn 0.000000 1.000000 0.000000
vn -0.577300 0.577300 0.577300
vn -1.000000 0.000000 0.000000
vn -0.577300 -0.577300 0.577300
vn 0.000000 0.000000 1.000000
vn 0.000000 -1.000000 0.000000
usemtl black
s off
f 10//1 2//2 1//3
f 12//1 5//4 6//5
f 11//1 6//5 2//2
f 12//1 9//1 1//3
f 14//6 7//7 8//8
f 13//6 8//8 6//5
f 15//6 6//5 5//4
f 14//6 16//6 5//4
f 18//9 4//10 2//2
f 19//9 8//8 4//10
f 20//9 6//5 8//8
f 20//9 17//9 2//2
f 22//11 3//12 4//10
f 21//11 4//10 8//8
f 23//11 8//8 7//7
f 24//11 7//7 3//12
f 25//13 1//3 2//2
f 26//13 2//2 4//10
f 27//13 4//10 3//12
f 28//13 3//12 1//3
f 30//14 1//3 3//12
f 29//14 3//12 7//7
f 31//14 7//7 5//4
f 32//14 5//4 1//3
f 9//1 10//1 1//3
f 11//1 12//1 6//5
f 10//1 11//1 2//2
f 5//4 12//1 1//3
f 13//6 14//6 8//8
f 15//6 13//6 6//5
f 16//6 15//6 5//4
f 7//7 14//6 5//4
f 17//9 18//9 2//2
f 18//9 19//9 4//10
f 19//9 20//9 8//8
f 6//5 20//9 2//2
f 21//11 22//11 4//10
f 23//11 21//11 8//8
f 24//11 23//11 7//7
f 22//11 24//11 3//12
f 26//13 25//13 2//2
f 27//13 26//13 4//10
f 28//13 27//13 3//12
f 25//13 28//13 1//3
f 29//14 30//14 3//12
f 31//14 29//14 7//7
f 32//14 31//14 5//4
f 30//14 32//14 1//3
usemtl green
f 29//14 31//14 32//14
f 30//14 29//14 32//14
usemtl blue
f 19//9 18//9 17//9
f 20//9 19//9 17//9
usemtl red
f 10//1 9//1 12//1
f 11//1 10//1 12//1
usemtl orange
f 23//11 24//11 22//11
f 21//11 23//11 22//11
usemtl white
f 27//13 28//13 25//13
f 26//13 27//13 25//13
usemtl yellow
f 15//6 16//6 14//6
f 13//6 15//6 14//6
