# Blender v2.74 (sub 0) OBJ File: ''
# www.blender.org
mtllib ico.mtl
o Icosphere
v -0.129813 -0.580158 0.132477
v 0.593795 -0.027378 0.658202
v -0.406201 -0.027378 0.983126
v -1.024239 -0.027374 0.132477
v -0.406201 -0.027378 -0.718172
v 0.593795 -0.027378 -0.393248
v 0.146575 0.867062 0.983126
v -0.853420 0.867061 0.658202
v -0.853420 0.867061 -0.393248
v 0.146575 0.867062 -0.718172
v 0.764614 0.867057 0.132477
v -0.129813 1.419842 0.132477
v -0.292268 -0.430813 0.632472
v 0.295510 -0.430812 0.441488
v 0.133056 -0.105896 0.941489
v 0.720835 -0.105894 0.132477
v 0.295510 -0.430812 -0.176534
v -0.655542 -0.430810 0.132477
v -0.818002 -0.105894 0.632474
v -0.292268 -0.430813 -0.367518
v -0.818002 -0.105894 -0.367520
v 0.133056 -0.105896 -0.676535
v 0.821245 0.419842 0.441490
v 0.821245 0.419842 -0.176536
v -0.129813 0.419842 1.132477
v 0.457973 0.419842 0.941494
v -1.080870 0.419842 0.441490
v -0.717598 0.419842 0.941494
v -0.717598 0.419842 -0.676540
v -1.080870 0.419842 -0.176536
v 0.457973 0.419842 -0.676540
v -0.129813 0.419842 -0.867523
v 0.558377 0.945578 0.632474
v -0.392681 0.945579 0.941489
v -0.980460 0.945578 0.132477
v -0.392681 0.945579 -0.676535
v 0.558377 0.945578 -0.367520
v 0.032643 1.270496 0.632472
v 0.395917 1.270494 0.132477
v -0.555135 1.270496 0.441488
v -0.555135 1.270496 -0.176534
v 0.032643 1.270496 -0.367518
v 1.907184 1.911241 -0.174825
v 1.700947 1.989762 -0.674822
v 1.538487 2.314677 -0.174825
vn 0.102400 -0.943500 0.315100
vn 0.700200 -0.661700 0.268000
vn -0.268000 -0.943500 0.194700
vn -0.268000 -0.943500 -0.194700
vn 0.102400 -0.943500 -0.315100
vn 0.905000 -0.330400 0.268000
vn 0.024700 -0.330400 0.943500
vn -0.889700 -0.330400 0.315100
vn -0.574600 -0.330400 -0.748800
vn 0.534600 -0.330400 -0.777900
vn 0.802600 -0.125600 0.583100
vn -0.306600 -0.125600 0.943500
vn -0.992100 -0.125600 0.000000
vn -0.306600 -0.125600 -0.943500
vn 0.802600 -0.125600 -0.583100
vn 0.408900 0.661700 0.628400
vn -0.471300 0.661700 0.583100
vn -0.700200 0.661700 -0.268000
vn 0.038500 0.661700 -0.748800
vn 0.268000 0.943500 -0.194700
vn 0.491100 0.794700 -0.356800
vn 0.408900 0.661700 -0.628400
vn -0.102400 0.943500 -0.315100
vn -0.187600 0.794700 -0.577300
vn -0.471300 0.661700 -0.583100
vn -0.331300 0.943500 0.000000
vn -0.607100 0.794700 0.000000
vn -0.700200 0.661700 0.268000
vn -0.102400 0.943500 0.315100
vn -0.187600 0.794700 0.577300
vn 0.038500 0.661700 0.748800
vn 0.268000 0.943500 0.194700
vn 0.491100 0.794700 0.356800
vn 0.724000 0.661700 0.194700
vn 0.889700 0.330400 -0.315100
vn 0.794700 0.187600 -0.577300
vn 0.574600 0.330400 -0.748800
vn -0.024700 0.330400 -0.943500
vn -0.303500 0.187600 -0.934200
vn -0.534600 0.330400 -0.777900
vn -0.905000 0.330400 -0.268000
vn -0.982200 0.187600 0.000000
vn -0.905000 0.330400 0.268000
vn -0.534600 0.330400 0.777900
vn -0.303500 0.187600 0.934200
vn -0.024700 0.330400 0.943500
vn 0.574600 0.330400 0.748800
vn 0.794700 0.187600 0.577300
vn 0.889700 0.330400 0.315100
vn 0.306600 0.125600 -0.943500
vn 0.303500 -0.187600 -0.934200
vn 0.024700 -0.330400 -0.943500
vn -0.802600 0.125600 -0.583100
vn -0.794700 -0.187600 -0.577300
vn -0.889700 -0.330400 -0.315100
vn -0.802600 0.125600 0.583100
vn -0.794700 -0.187600 0.577300
vn -0.574600 -0.330400 0.748800
vn 0.306600 0.125600 0.943500
vn 0.303500 -0.187600 0.934200
vn 0.534600 -0.330400 0.777900
vn 0.992100 0.125600 0.000000
vn 0.982200 -0.187600 0.000000
vn 0.905000 -0.330400 -0.268000
vn 0.471300 -0.661700 -0.583100
vn 0.187600 -0.794700 -0.577300
vn -0.038500 -0.661700 -0.748800
vn -0.408900 -0.661700 -0.628400
vn -0.491100 -0.794700 -0.356800
vn -0.724000 -0.661700 -0.194700
vn -0.724000 -0.661700 0.194700
vn -0.491100 -0.794700 0.356800
vn -0.408900 -0.661700 0.628400
vn 0.700200 -0.661700 -0.268000
vn 0.607100 -0.794700 0.000000
vn 0.331300 -0.943500 0.000000
vn -0.038500 -0.661700 0.748800
vn 0.187600 -0.794700 0.577300
vn 0.471300 -0.661700 0.583100
vn 0.143700 0.131400 0.980900
vn 0.577400 -0.735900 -0.353700
vn -0.637700 0.534600 -0.554600
vn 0.724000 0.661700 -0.194700
usemtl Material.001
s off
f 1//1 14//1 13//1
f 2//2 14//2 16//2
f 1//3 13//3 18//3
f 1//4 18//4 20//4
f 1//5 20//5 17//5
f 2//6 16//6 23//6
f 3//7 15//7 25//7
f 4//8 19//8 27//8
f 5//9 21//9 29//9
f 6//10 22//10 31//10
f 2//11 23//11 26//11
f 3//12 25//12 28//12
f 4//13 27//13 30//13
f 5//14 29//14 32//14
f 6//15 31//15 24//15
f 7//16 33//16 38//16
f 8//17 34//17 40//17
f 9//18 35//18 41//18
f 10//19 36//19 42//19
f 39//20 42//20 12//20
f 39//21 37//21 42//21
f 37//22 10//22 42//22
f 42//23 41//23 12//23
f 42//24 36//24 41//24
f 36//25 9//25 41//25
f 41//26 40//26 12//26
f 41//27 35//27 40//27
f 35//28 8//28 40//28
f 40//29 38//29 12//29
f 40//30 34//30 38//30
f 34//31 7//31 38//31
f 38//32 39//32 12//32
f 38//33 33//33 39//33
f 33//34 11//34 39//34
f 24//35 37//35 11//35
f 24//36 31//36 37//36
f 31//37 10//37 37//37
f 32//38 36//38 10//38
f 32//39 29//39 36//39
f 29//40 9//40 36//40
f 30//41 35//41 9//41
f 30//42 27//42 35//42
f 27//43 8//43 35//43
f 28//44 34//44 8//44
f 28//45 25//45 34//45
f 25//46 7//46 34//46
f 26//47 33//47 7//47
f 26//48 23//48 33//48
f 23//49 11//49 33//49
f 31//50 32//50 10//50
f 31//51 22//51 32//51
f 22//52 5//52 32//52
f 29//53 30//53 9//53
f 29//54 21//54 30//54
f 21//55 4//55 30//55
f 27//56 28//56 8//56
f 27//57 19//57 28//57
f 19//58 3//58 28//58
f 25//59 26//59 7//59
f 25//60 15//60 26//60
f 15//61 2//61 26//61
f 23//62 24//62 11//62
f 23//63 16//63 24//63
f 16//64 6//64 24//64
f 17//65 22//65 6//65
f 17//66 20//66 22//66
f 20//67 5//67 22//67
f 20//68 21//68 5//68
f 20//69 18//69 21//69
f 18//70 4//70 21//70
f 18//71 19//71 4//71
f 18//72 13//72 19//72
f 13//73 3//73 19//73
f 16//74 17//74 6//74
f 16//75 14//75 17//75
f 14//76 1//76 17//76
f 13//77 15//77 3//77
f 13//78 14//78 15//78
f 14//79 2//79 15//79
usemtl Material.002
f 11//80 43//80 45//80
f 39//80 11//80 45//80
usemtl Material.003
f 11//81 37//81 44//81
f 43//81 11//81 44//81
usemtl Material.004
f 39//82 45//82 44//82
f 37//82 39//82 44//82
usemtl Material.005
f 43//83 44//83 45//83
